# xmcd
#
# Track frame offsets:
#	150
#	15448
#	31891
#	48807
#	64612
#	82869
#	99634
#	115012
#	131053
#	148710
#	162498
#	177323
#	195516
#	213780
#	231156
#	245264
#	260162
#	276215
#	294030
#	311277
#	327771
#	343901
#
# Disc length: 4762 seconds
#
# Revision: 0
# Processed by: cddbd v1.5.1PL2 Copyright (c) Steve Scherf et al.
# Submitted via: dBpowerAMP V4.0
#
DISCID=2e129816
DTITLE=STAR - Phat jamz
DYEAR=1900
DGENRE=
TTITLE0=JUSTLOSE IT
TTITLE1=REAL GANGSTAS
TTITLE2=WESTSIDE STORY
TTITLE3=HEY NOW
TTITLE4=WHAT YOU GONNA DO
TTITLE5=SHORTY WANNA RIDE
TTITLE6=REAL BIG
TTITLE7=NO PROBLEMS
TTITLE8=BREAK BREAD
TTITLE9=LETS GO
TTITLE10=THE RETURN
TTITLE11=ME AND YOU
TTITLE12=BREATHE
TTITLE13=YOU MAKWE ME WANNA
TTITLE14=1 2 STEP
TTITLE15=LOSE MY BREATH
TTITLE16=DONT CHA
TTITLE17=WONDERFUL
TTITLE18=LET ME LOVE YOU
TTITLE19=SLOW DOWN
TTITLE20=OYE MI CANTO
TTITLE21=GASOLINA
EXTD=Star\n\n
EXTT0=
EXTT1=
EXTT2=
EXTT3=
EXTT4=
EXTT5=
EXTT6=
EXTT7=
EXTT8=
EXTT9=
EXTT10=
EXTT11=
EXTT12=
EXTT13=
EXTT14=
EXTT15=
EXTT16=
EXTT17=
EXTT18=
EXTT19=
EXTT20=
EXTT21=
PLAYORDER=
